PathFileType	4	(X/Y/Z)	E:\Qualisys_Data\Carbon_Farble_Plate\Data\Amateur_Runner\S2\T3\S2T3V11_c3d.trc
DataRate	CameraRate	NumFrames	NumMarkers	Units	OrigDataRate	OrigDataStartFrame	OrigNumFrames
200.000000	200.000000	4	39	mm	200.000000	283	324
Frame#	Time	LSHO			RSHO			LICST			RICST			LASIS			LHEEL			RASIS			LTROC			RTROC			SACR			LTH1			LSK4			LTH2			LTH3			RHM5			LSK2			LTH4			RTH1			LTOE			RTH2			RTH3			RTH4			LLEP			RLEP			LSK1			LSK3			RSK1			LHM5			RSK2			LFT1			RSK3			RSK4			LLME			RLME			RTOE			RHEEL			RFT1			RFT2			LFT2			
		X1	Y1	Z1	X2	Y2	Z2	X3	Y3	Z3	X4	Y4	Z4	X5	Y5	Z5	X6	Y6	Z6	X7	Y7	Z7	X8	Y8	Z8	X9	Y9	Z9	X10	Y10	Z10	X11	Y11	Z11	X12	Y12	Z12	X13	Y13	Z13	X14	Y14	Z14	X15	Y15	Z15	X16	Y16	Z16	X17	Y17	Z17	X18	Y18	Z18	X19	Y19	Z19	X20	Y20	Z20	X21	Y21	Z21	X22	Y22	Z22	X23	Y23	Z23	X24	Y24	Z24	X25	Y25	Z25	X26	Y26	Z26	X27	Y27	Z27	X28	Y28	Z28	X29	Y29	Z29	X30	Y30	Z30	X31	Y31	Z31	X32	Y32	Z32	X33	Y33	Z33	X34	Y34	Z34	X35	Y35	Z35	X36	Y36	Z36	X37	Y37	Z37	X38	Y38	Z38	X39	Y39	Z39	

284	1.415	2023.071044921875	1444.486938476562	-496.117431640625	1978.267944335938	1439.935668945312	-180.3193664550781	1915.351440429688	992.263916015625	-467.6388549804688	1924.678466796875	992.5630493164062	-165.73388671875	1965.924194335938	939.1016845703124	-453.7581787109375	1478.657836914062	191.28662109375	-350.0623168945312	1980.905883789062	943.7117309570312	-194.8304443359375	1822.927978515625	884.4732055664062	-461.63623046875	1853.160034179688	888.73193359375	-148.8903656005859	1830.47900390625	1038.96875	-320.4229736328125	1887.276245117188	628.053466796875	-470.9673767089844	1614.220458984375	342.0946350097656	-441.5548095703125	1807.149169921875	648.6217651367188	-475.4315795898438	1860.2099609375	529.9295043945312	-449.1278686523438	1901.19775390625	127.3437728881836	-174.3887786865234	1672.973876953125	421.0610656738281	-460.4912719726562	1777.991455078125	554.22216796875	-452.7000122070312	2088.2841796875	683.4995727539062	-159.5414886474609	1669.334716796875	53.41012573242188	-371.4168701171875	2017.183471679688	652.0468139648438	-149.0894622802734	2125.232421875	591.0947265625	-182.0342254638672	2051.029541015625	562.6014404296875	-168.7503051757812	1795.272094726562	499.0982360839844	-452.4091491699219	2082.37109375	539.8739013671875	-170.6158142089844	1736.330810546875	373.8885803222656	-454.78466796875	1676.853881835938	293.8126831054688	-441.5316772460938	2046.53662109375	425.6077270507812	-172.6111450195312	1605.239624023438	62.85822677612305	-427.3776550292969	1986.485229492188	479.4375610351562	-169.0502624511719	1475.245849609375	164.1289672851562	-317.9845886230469	1979.20947265625	349.6163024902344	-182.6371002197266	1921.609497070312	404.2917785644531	-179.6609802246094	1543.485717773438	171.3195037841797	-407.8717651367188	1828.158203125	236.0270843505859	-207.9823150634766	1966.682983398438	100.8814315795898	-226.3827667236328	1770.315185546875	254.4887542724609	-267.398681640625	1768.052368164062	224.4147644042969	-296.7117919921875	1752.193725585938	235.2172241210938	-248.4881134033203	1462.148559570312	162.123779296875	-369.4668884277344
285	1.42	2041.252685546875	1448.922485351562	-494.6835327148438	1994.21337890625	1443.637939453125	-179.5025024414062	1933.410766601562	996.566650390625	-466.8443298339844	1941.352416992188	996.716552734375	-165.7686462402344	1983.619506835938	942.700927734375	-452.5276489257812	1488.457153320312	200.2843627929688	-351.4151000976562	1997.952392578125	947.9935913085938	-194.2427825927734	1839.662963867188	888.8952026367188	-461.3340454101562	1870.70263671875	893.5982055664062	-147.7108612060547	1848.194091796875	1042.903198242188	-320.0881042480469	1899.392211914062	631.6324462890625	-471.0231018066406	1623.328247070312	348.3960876464844	-442.953125	1819.70751953125	653.8721923828125	-475.58935546875	1870.51611328125	534.7733154296875	-449.3246765136719	1938.844848632812	121.9106903076172	-173.9458160400391	1681.972045898438	427.7439575195312	-461.2085266113281	1788.970092773438	559.910888671875	-452.9771423339844	2106.4384765625	688.0501098632812	-160.0203857421875	1671.932373046875	51.8508415222168	-371.3318176269531	2035.617919921875	656.8104858398438	-149.2440185546875	2142.878662109375	595.3453369140625	-181.8093414306641	2068.1943359375	567.4696044921875	-168.5299224853516	1805.1875	504.4845275878906	-452.5711364746094	2099.4765625	543.9078369140625	-171.1153106689453	1745.432983398438	380.6163330078125	-456.0288696289062	1685.678955078125	300.1210021972656	-443.3027954101562	2067.84521484375	426.9593200683594	-172.1505889892578	1609.3720703125	64.81885528564453	-428.7576293945312	2004.977172851562	477.5404663085938	-167.0776214599609	1484.6025390625	174.8115539550781	-320.3695678710938	2004.582763671875	347.3140563964844	-182.1834716796875	1944.35009765625	399.5434875488281	-178.4652862548828	1552.096923828125	177.5030517578125	-410.6920471191406	1859.494140625	225.9078521728516	-207.6949920654297	2006.406616210938	100.1451568603516	-225.9757690429688	1801.176513671875	241.3243255615234	-268.0545349121094	1800.318603515625	211.3542175292969	-296.7987976074219	1784.42333984375	220.2211303710938	-249.1003265380859	1471.781494140625	172.8088531494141	-371.637939453125
286	1.425	2059.270751953125	1453.329223632812	-492.9873657226562	2010.309448242188	1447.134887695312	-179.1055450439453	1951.231567382812	999.6613159179688	-465.869873046875	1958.07470703125	1001.323486328125	-165.4558715820312	2001.315795898438	945.7587280273438	-452.1662292480469	1499.892333984375	210.3164825439453	-353.9089050292969	2014.796142578125	952.454345703125	-193.8014678955078	1856.380981445312	892.90625	-460.3889465332031	1888.317626953125	898.39501953125	-146.5190124511719	1865.658081054688	1046.760620117188	-319.8042907714844	1911.77685546875	636.0704345703125	-471.4737854003906	1632.57275390625	354.4326171875	-443.8559265136719	1830.793579101562	659.5661010742188	-476.4951171875	1881.218994140625	539.0779418945312	-449.6302490234375	1976.38037109375	117.0091705322266	-173.9259643554688	1691.142822265625	433.9133911132812	-461.630859375	1799.987182617188	566.2376098632812	-452.8685302734375	2124.07080078125	691.8718872070312	-160.3670654296875	1675.629272460938	51.10991287231445	-372.4281616210938	2054.0068359375	662.0863037109375	-148.4309387207031	2159.7431640625	599.05712890625	-181.7861938476562	2085.109130859375	571.51025390625	-168.5792083740234	1814.908569335938	510.476806640625	-453.38427734375	2115.449462890625	547.165771484375	-170.6685791015625	1754.849365234375	386.8880920410156	-457.1445007324219	1695.242919921875	306.1852416992188	-445.3220520019531	2089.22119140625	428.6277770996094	-171.2523956298828	1613.942626953125	66.8426513671875	-429.5924987792969	2023.888549804688	475.1821594238281	-165.5304412841797	1494.590942382812	184.9406585693359	-322.9814758300781	2029.743286132812	345.7771301269531	-181.1843872070312	1967.458374023438	394.7770690917969	-177.2817993164062	1562.05126953125	182.7335815429688	-412.473876953125	1891.66650390625	216.5827026367188	-207.1862945556641	2045.807983398438	100.0731506347656	-225.3429565429688	1832.626708984375	228.3714904785156	-267.6775207519531	1833.88720703125	198.6836700439453	-296.620361328125	1816.771240234375	206.2973937988281	-248.6707000732422	1482.113037109375	183.2070465087891	-374.4881286621094
287	1.43	2077.28466796875	1457.381713867188	-491.4561767578125	2026.817138671875	1450.263061523438	-178.4105682373047	1969.230834960938	1003.249389648438	-464.9951477050781	1975.296508789062	1005.579833984375	-164.9775848388672	2018.986450195312	948.8895263671876	-451.5043029785156	1512.637084960938	220.72607421875	-358.3388671875	2032.234252929688	956.7271728515624	-193.0448760986328	1873.265625	897.2509155273438	-460.3344421386719	1906.081176757812	903.0809326171876	-145.5089263916016	1883.014404296875	1050.539184570312	-319.9609680175781	1923.7177734375	640.0507202148438	-471.6732177734375	1642.530029296875	360.8945922851562	-445.2528381347656	1843.521484375	665.298583984375	-476.3012390136719	1891.715942382812	543.8306274414062	-449.8399658203125	2014.265869140625	112.7869567871094	-172.7884826660156	1700.943603515625	440.5449523925781	-462.0939636230469	1810.967529296875	572.3321533203125	-452.4999084472656	2141.271240234375	695.8407592773438	-160.7564849853516	1679.255493164062	50.24531173706055	-373.5175170898438	2070.7470703125	666.2769775390625	-148.7050628662109	2176.298828125	602.4877319335938	-181.3811645507812	2101.935546875	576.0266723632812	-167.8780212402344	1825.34375	515.8903198242188	-452.8278503417969	2131.728271484375	550.6580810546875	-170.4224700927734	1764.689086914062	393.1635131835938	-458.1371154785156	1704.874267578125	312.9073486328125	-447.3254089355469	2110.06103515625	429.630859375	-170.4519653320312	1618.969604492188	69.33029174804688	-431.1208190917969	2042.524780273438	472.61181640625	-163.4520721435547	1505.159545898438	196.0739440917969	-325.9449768066406	2054.936767578125	344.0311584472656	-181.0247955322266	1989.824462890625	389.2086791992188	-176.2816772460938	1572.08740234375	188.9768524169922	-415.1895141601562	1924.148071289062	206.9426422119141	-206.6826019287109	2084.849853515625	100.2465515136719	-224.1575012207031	1864.243774414062	215.5475921630859	-267.0945739746094	1867.491333007812	186.4747161865234	-296.4720764160156	1849.774536132812	192.5028991699219	-249.1705780029297	1492.811401367188	194.2955627441406	-377.55810546875
